<?xml version="1.0" standalone="no"?>
<!DOCTYPE svg PUBLIC "-//W3C//DTD SVG 20010904//EN"
 "http://www.w3.org/TR/2001/REC-SVG-20010904/DTD/svg10.dtd">
<svg version="1.0" xmlns="http://www.w3.org/2000/svg"
 width="820.000000pt" height="819.000000pt" viewBox="0 0 820.000000 819.000000"
 preserveAspectRatio="xMidYMid meet">
<metadata>
Created by potrace 1.16, written by Peter Selinger 2001-2019
</metadata>
<g transform="translate(0.000000,819.000000) scale(0.100000,-0.100000)"
fill="#000000" stroke="none">
<path d="M3975 7657 c-35 -12 -115 -55 -410 -220 -38 -21 -99 -55 -135 -74
-36 -20 -69 -39 -75 -43 -9 -7 -135 -77 -250 -140 -27 -15 -68 -38 -90 -50
-41 -23 -229 -129 -580 -325 -110 -62 -294 -165 -410 -230 -213 -119 -339
-190 -430 -240 -27 -15 -135 -76 -240 -135 -104 -58 -226 -126 -270 -150 -97
-53 -158 -113 -193 -188 l-27 -57 -3 -1690 c-3 -1876 -7 -1740 64 -1838 44
-61 83 -88 301 -210 298 -166 1495 -837 2348 -1315 424 -238 420 -236 520
-236 63 0 93 5 140 25 52 22 246 129 1145 634 413 232 942 529 1360 762 250
140 470 269 489 286 40 38 71 86 95 146 16 42 17 151 16 1728 l-1 1684 -21 57
c-30 80 -124 171 -249 238 -90 49 -561 311 -1129 629 -146 81 -326 181 -400
223 -74 41 -153 84 -175 97 -22 12 -119 66 -215 120 -96 54 -213 120 -260 145
-47 26 -195 109 -330 184 -352 197 -337 191 -450 193 -57 2 -111 -3 -135 -10z
m445 -1191 c608 -81 1172 -400 1550 -876 81 -102 190 -262 190 -277 -1 -10
-1018 -588 -1035 -588 -7 0 -35 30 -62 66 -114 157 -262 283 -432 369 -155 78
-286 110 -477 117 -178 7 -276 -5 -414 -49 -261 -83 -487 -256 -637 -485 -141
-216 -203 -445 -190 -706 26 -527 384 -967 895 -1098 483 -123 999 74 1281
490 23 34 43 61 44 61 2 0 82 -43 178 -96 96 -53 330 -181 521 -286 l347 -191
-16 -31 c-9 -17 -46 -76 -84 -131 -294 -433 -725 -761 -1220 -926 -249 -84
-479 -120 -759 -120 -400 0 -726 77 -1082 256 -388 195 -736 519 -971 901
-381 622 -449 1411 -180 2094 224 569 632 1012 1178 1281 293 144 544 210 915
243 79 7 352 -4 460 -18z"/>
</g>
</svg>
